<svg width="18" height="18" viewBox="0 0 18 18" fill="none" xmlns="http://www.w3.org/2000/svg">
<path d="M13.725 4.28218C13.6557 4.21265 13.5732 4.15749 13.4825 4.11986C13.3918 4.08222 13.2945 4.06285 13.1963 4.06285C13.0981 4.06285 13.0008 4.08222 12.9101 4.11986C12.8193 4.15749 12.7369 4.21265 12.6675 4.28218L9.00005 7.94218L5.33255 4.27468C5.26311 4.20524 5.18068 4.15016 5.08995 4.11258C4.99923 4.07501 4.90199 4.05566 4.8038 4.05566C4.7056 4.05566 4.60836 4.07501 4.51764 4.11258C4.42691 4.15016 4.34448 4.20524 4.27505 4.27468C4.20561 4.34412 4.15053 4.42655 4.11295 4.51727C4.07537 4.60799 4.05603 4.70523 4.05603 4.80343C4.05603 4.90163 4.07537 4.99886 4.11295 5.08959C4.15053 5.18031 4.20561 5.26274 4.27505 5.33218L7.94255 8.99968L4.27505 12.6672C4.20561 12.7366 4.15053 12.819 4.11295 12.9098C4.07537 13.0005 4.05603 13.0977 4.05603 13.1959C4.05603 13.2941 4.07537 13.3914 4.11295 13.4821C4.15053 13.5728 4.20561 13.6552 4.27505 13.7247C4.34448 13.7941 4.42691 13.8492 4.51764 13.8868C4.60836 13.9244 4.7056 13.9437 4.8038 13.9437C4.90199 13.9437 4.99923 13.9244 5.08995 13.8868C5.18068 13.8492 5.26311 13.7941 5.33255 13.7247L9.00005 10.0572L12.6675 13.7247C12.737 13.7941 12.8194 13.8492 12.9101 13.8868C13.0009 13.9244 13.0981 13.9437 13.1963 13.9437C13.2945 13.9437 13.3917 13.9244 13.4825 13.8868C13.5732 13.8492 13.6556 13.7941 13.725 13.7247C13.7945 13.6552 13.8496 13.5728 13.8871 13.4821C13.9247 13.3914 13.9441 13.2941 13.9441 13.1959C13.9441 13.0977 13.9247 13.0005 13.8871 12.9098C13.8496 12.819 13.7945 12.7366 13.725 12.6672L10.0575 8.99968L13.725 5.33218C14.01 5.04718 14.01 4.56718 13.725 4.28218Z" fill="#424242"/>
</svg>
