<svg width="18" height="18" viewBox="0 0 18 18" fill="none" xmlns="http://www.w3.org/2000/svg">
<path d="M8.99998 11.2309C8.89998 11.2309 8.80323 11.2121 8.70973 11.1746C8.61573 11.1371 8.53748 11.0871 8.47498 11.0246L5.02498 7.57461C4.88748 7.43711 4.81873 7.26211 4.81873 7.04961C4.81873 6.83711 4.88748 6.66211 5.02498 6.52461C5.16248 6.38711 5.33748 6.31836 5.54998 6.31836C5.76248 6.31836 5.93748 6.38711 6.07498 6.52461L8.99998 9.44961L11.925 6.52461C12.0625 6.38711 12.2375 6.31836 12.45 6.31836C12.6625 6.31836 12.8375 6.38711 12.975 6.52461C13.1125 6.66211 13.1812 6.83711 13.1812 7.04961C13.1812 7.26211 13.1125 7.43711 12.975 7.57461L9.52498 11.0246C9.44998 11.0996 9.36873 11.1526 9.28123 11.1836C9.19373 11.2151 9.09998 11.2309 8.99998 11.2309Z" fill="#424242"/>
</svg>
